<svg width="570" height="504" viewBox="0 0 570 504" fill="none" xmlns="http://www.w3.org/2000/svg">
<g clip-path="url(#clip0)">
<path d="M200.432 96.8587L194.967 98.5356L191.298 90.0425L183.005 91.5088L179.22 85.6018L176.229 87.5171L181.292 95.4182L189.15 94.0284L192.968 102.864L201.191 100.341L200.432 96.8587Z" fill="#50BFA5"/>
<path d="M550.857 402.339L545.392 404.016L541.723 395.523L533.431 396.989L529.646 391.082L526.655 392.998L531.717 400.899L539.576 399.509L543.394 408.344L551.616 405.821L550.857 402.339Z" fill="#50BFA5"/>
<path d="M166.762 502.895C166.762 502.895 137.603 404.074 135.263 382.276C132.924 360.478 149.229 367.233 149.229 367.233C149.229 367.233 135.513 325.696 145.431 315.838C155.349 305.98 164.297 324.354 164.297 324.354C164.297 324.354 167.299 273.933 177.874 273.914C197.572 273.879 197.184 328.904 197.184 328.904C197.184 328.904 202.211 307.362 212.758 313.267C228.663 322.174 205.855 365.345 205.855 365.345C205.855 365.345 226.122 365.36 233.241 375.578C246.014 393.912 166.762 502.895 166.762 502.895Z" fill="#50BFA5"/>
<path d="M176.295 489.815C176.295 489.815 92.2354 475.76 73.951 460.867C55.6666 445.975 73.7641 439.259 73.7641 439.259C73.7641 439.259 31.5361 417.614 32.0252 402.896C32.5143 388.179 53.4919 395.661 53.4919 395.661C53.4919 395.661 17.9113 355.093 26.3345 347.389C42.0246 333.038 83.1584 375.21 83.1584 375.21C83.1584 375.21 70.9442 355.155 83.8079 351.981C103.206 347.195 117.524 396.646 117.524 396.646C117.524 396.646 113.887 377.117 127.262 379.718C151.262 384.386 176.295 489.815 176.295 489.815Z" fill="#50BFA5"/>
<path d="M127.262 379.717C113.852 377.293 117.523 396.645 117.523 396.645C117.523 396.645 103.206 347.193 83.8071 351.98C70.9441 355.154 83.1576 375.209 83.1576 375.209C83.1576 375.209 42.0238 333.037 26.3337 347.388L176.011 489.839C173.347 476.232 149.742 383.782 127.262 379.717Z" fill="#3C8F7C"/>
<path d="M200.21 501.408C200.21 501.408 155.942 456.394 133.649 451.707C111.356 447.02 115.365 462.879 115.365 462.879C115.365 462.879 71.1348 424.204 60.8848 433.575C50.6348 442.946 61.7226 451.992 61.7226 451.992C61.7226 451.992 24.8803 445.465 19.6064 457.553C11.5025 476.129 72.0943 486.239 72.0943 486.239C72.0943 486.239 46.7036 487.998 52.5919 499.645C53.4784 501.398 58.864 503.956 58.864 503.956L174.126 503.989L200.21 501.408Z" fill="#355389"/>
<path d="M19.6062 457.553C24.8801 445.464 61.7225 451.992 61.7225 451.992C61.7225 451.992 50.6347 442.945 60.8847 433.574C71.1346 424.203 113.99 457.619 113.99 457.619C113.99 457.619 103.885 438.306 126.178 442.994C148.472 447.682 200.21 501.408 200.21 501.408L19.6062 457.553Z" fill="#466EB6"/>
<path d="M270.687 37.1561C255.786 39.6077 251.361 59.1629 263.749 67.9088C265.973 69.4797 267.514 71.8425 268.169 74.486L270.424 83.582C271.046 86.0887 273.489 87.6976 276.038 87.2787L281.683 86.35C284.232 85.9305 286.031 83.6235 285.816 81.0502C285.032 71.6592 284.063 68.2525 287.117 64.0647C296.046 51.8125 285.592 34.7038 270.687 37.1561Z" fill="#F7CC7F"/>
<path d="M272.208 76.9118C271.237 68.8654 269.875 60.3723 269.412 57.9622C260.871 58.4334 264.117 49.4311 268.059 53.0913C269.182 54.1345 269.712 55.5493 270.063 57.0994C272.9 56.8438 275.673 56.034 278.201 54.7288C278.065 52.7448 277.869 51.2412 278.424 49.971C279.26 48.0535 281.691 47.5309 282.68 49.3996C283.052 50.1013 283.116 50.9984 282.848 51.7424C282.277 53.329 280.551 54.3772 279.049 55.1978C279.497 61.5945 280.12 68.0399 280.905 74.3879L280.098 74.4881C279.327 68.2432 278.712 61.9031 278.264 55.6087C275.755 56.856 273.023 57.6372 270.229 57.9006C270.814 60.9809 272.105 69.2606 273.016 76.8144L272.208 76.9118ZM265.356 56.0648C266.115 56.8825 267.387 57.2427 269.242 57.1574C268.922 55.7906 268.447 54.5605 267.506 53.6877C265.385 51.7173 264.083 54.693 265.356 56.0648ZM279.168 50.2968C278.702 51.3643 278.879 52.7312 278.986 54.3028C280.206 53.6083 281.623 52.7397 282.082 51.4674C282.404 50.5753 282.042 49.3144 281.134 49.0817C281.036 49.0567 279.495 49.5478 279.168 50.2968Z" fill="#FAE0B2"/>
<path d="M268.103 74.2619C268.123 74.3378 268.15 74.4108 268.168 74.4867L270.423 83.5827C271.045 86.0894 273.488 87.6983 276.037 87.2794L281.682 86.3501C284.231 85.9305 286.03 83.6236 285.815 81.0503C285.466 76.8724 285.082 73.881 285.031 71.476L268.103 74.2619Z" fill="#96D9C9"/>
<path d="M259.642 30.3641L255.187 22.2311C254.756 21.4443 255.044 20.4562 255.831 20.0252C256.618 19.5941 257.606 19.8827 258.038 20.6695L262.493 28.8026C262.923 29.5894 262.636 30.5775 261.849 31.0085C261.057 31.4417 260.071 31.1467 259.642 30.3641Z" fill="#FAE0B2"/>
<path d="M249.902 50.0361L240.189 49.187C239.295 49.1089 238.634 48.3206 238.712 47.4263C238.79 46.5328 239.578 45.8705 240.473 45.9492L250.185 46.7984C251.079 46.8765 251.741 47.6648 251.662 48.559C251.585 49.4519 250.798 50.1135 249.902 50.0361Z" fill="#FAE0B2"/>
<path d="M240.272 79.8102C239.641 79.1715 239.646 78.1426 240.285 77.5125C242.673 75.1533 245.298 73.0118 248.09 71.1473C248.836 70.649 249.845 70.8494 250.344 71.5955C250.842 72.3416 250.642 73.3504 249.896 73.8495C247.276 75.6001 244.812 77.6092 242.571 79.8238C241.935 80.4517 240.905 80.4517 240.272 79.8102Z" fill="#FAE0B2"/>
<path d="M283.639 29.9245C282.772 29.6925 282.257 28.8018 282.489 27.9348C283.589 23.8178 284.264 19.5719 284.493 15.3168C284.542 14.4203 285.306 13.7315 286.203 13.7809C287.1 13.8289 287.786 14.5943 287.739 15.4907C287.498 19.97 286.789 24.4393 285.63 28.7732C285.397 29.646 284.499 30.1558 283.639 29.9245Z" fill="#FAE0B2"/>
<path d="M293.642 42.4086C293.383 41.5494 293.869 40.643 294.729 40.3838L304.826 37.3408C305.687 37.0816 306.593 37.5685 306.852 38.4277C307.11 39.2869 306.624 40.1933 305.765 40.4525L295.667 43.4955C294.809 43.7533 293.902 43.27 293.642 42.4086Z" fill="#FAE0B2"/>
<path d="M310.229 69.2735C310.083 69.2735 309.935 69.2535 309.788 69.212C306.289 68.2289 302.887 66.8649 299.677 65.1594C298.885 64.7384 298.583 63.7539 299.004 62.962C299.425 62.1694 300.41 61.8687 301.202 62.2897C304.208 63.8864 307.392 65.163 310.668 66.0838C311.532 66.3265 312.035 67.2236 311.792 68.0879C311.591 68.8046 310.938 69.2735 310.229 69.2735Z" fill="#FAE0B2"/>
<path d="M458.127 141.109L453.033 129.064L440.221 126.432C438.762 126.132 438.28 124.289 439.405 123.313L449.288 114.746L447.832 101.75C447.666 100.27 449.27 99.2423 450.546 100.011L461.748 106.762L473.66 101.362C475.017 100.747 476.49 101.954 476.153 103.405L473.194 116.143L482.011 125.802C483.016 126.903 482.322 128.676 480.839 128.804L467.807 129.927L461.344 141.296C460.61 142.592 458.708 142.481 458.127 141.109Z" fill="#F7CC7F"/>
<path d="M539.224 99.78L537.13 108.212L523.188 106.342L518.605 118.294L507.944 118.599L508.099 123.996L522.358 123.587L526.701 112.261L541.205 114.207L544.356 101.518L539.224 99.78Z" fill="#F48C7F"/>
<path d="M328.916 426.72C329.273 426.052 328.731 425.278 327.907 425.278H198.232C188.068 425.278 179.829 432.693 179.829 441.839C179.829 450.986 188.068 458.401 198.232 458.401H327.943C328.771 458.401 329.314 457.622 328.954 456.951C323.819 447.378 323.832 436.25 328.916 426.72Z" fill="#86B1F2"/>
<path d="M328.099 428.361H263.831C251.903 428.361 242.233 434.574 242.233 442.238C242.233 449.902 251.903 456.116 263.831 456.116H328.521C324.1 447.285 323.978 437.231 328.099 428.361Z" fill="#F7CC7F"/>
<path d="M311.501 434.94H303.132C301.332 434.94 299.873 435.544 299.873 436.29V436.411H311.502L311.501 434.94Z" fill="#B75742"/>
<path d="M318.641 438.325C318.641 436.455 316.454 434.94 313.758 434.94H303.017C305.062 434.94 306.721 436.089 306.721 437.507L306.67 473.791L312.605 469.125L318.653 473.791L318.641 438.325Z" fill="#F47458"/>
<path d="M305.075 424.084H229.624C222.934 424.084 217.509 417.647 217.509 409.707C217.509 401.767 222.934 395.33 229.624 395.33H305.075C299.308 403.3 299.082 414.992 304.537 423.267L305.075 424.084Z" fill="#FAE0B2"/>
<path d="M217.517 409.707C217.517 401.767 223.069 395.33 229.918 395.33H306.514C306.871 395.33 307.16 394.992 307.156 394.578C307.153 394.169 306.866 393.84 306.514 393.84H185.004C177.446 393.84 171.318 400.944 171.318 409.707C171.318 418.47 177.446 425.574 185.004 425.574H306.513C306.865 425.574 307.153 425.245 307.156 424.836C307.159 424.422 306.87 424.084 306.513 424.084H229.918C223.069 424.084 217.517 417.647 217.517 409.707Z" fill="#466EB6"/>
<path d="M291.901 402.395H283.531C281.731 402.395 280.271 402.988 280.271 403.719V403.838H291.901V402.395Z" fill="#184655"/>
<path d="M299.04 405.715C299.04 403.881 296.854 402.395 294.158 402.395H283.417C285.462 402.395 287.12 403.523 287.12 404.913L287.069 440.496L293.003 435.92L299.052 440.496L299.04 405.715Z" fill="#3C8F7C"/>
<path d="M425.292 182.602L436.431 179.671L428.881 280.353L415.518 280.798L422.259 186.26C422.383 184.518 423.603 183.047 425.292 182.602Z" fill="#184655"/>
<path d="M429.88 283.225C429.631 283.248 429.376 283.245 429.116 283.213C426.904 282.952 425.267 280.752 425.459 278.299L432.872 183.629C433.064 181.176 435.012 179.399 437.226 179.661C439.439 179.922 441.076 182.122 440.884 184.575L433.471 279.246C433.3 281.412 431.761 283.051 429.88 283.225Z" fill="#F7CC7F"/>
<path d="M327.365 288.267C327.37 288.336 327.373 288.406 327.38 288.476C327.728 292.327 330.713 295.208 334.046 294.91L428.114 286.492C431.446 286.194 433.865 282.83 433.516 278.978C433.501 278.815 433.48 278.655 433.456 278.496L327.365 288.267Z" fill="#F7CC7F"/>
<path d="M392.871 389.956C386.71 393.371 367.883 387.382 367.883 386.841C367.611 391.986 346.799 442.345 346.799 442.345L346.816 457.84C346.816 457.84 389.703 459.884 389.085 456.095C388.468 452.306 386.162 454.77 377.607 447.613C376.847 446.978 364.835 444.191 368.086 437.081C374.632 422.763 388.537 398.893 392.871 389.956Z" fill="#F7A491"/>
<path d="M345.406 458.393L392.35 458.406C394.044 458.234 394.44 456.857 393.842 456.018C392.609 454.293 383.613 450.225 377.565 447.526C367.031 448.756 348.513 444.706 346.818 442.305C342.36 448.276 344.46 458.199 345.406 458.393Z" fill="#3C8F7C"/>
<path d="M335.107 353.798C334.473 351.894 375.526 334.474 377.363 336.465C380.613 339.985 355.152 406.07 355.152 406.07L384.406 415.007C384.406 415.007 414.818 338.658 413.549 324.694C412.279 310.73 397.044 294.861 364.033 305.017C331.022 315.173 335.107 353.798 335.107 353.798Z" fill="#355389"/>
<path d="M420.107 398.642C413.177 397.38 404.195 397.021 397.004 396.896C397.851 403.298 401.967 436.123 401.214 438.14C398.166 446.311 391.407 450.136 391.407 450.136C391.407 450.136 423.284 478.894 425.209 475.572C427.133 472.25 423.788 472.695 421.706 461.738C421.522 460.765 416.913 445.47 416.627 437.221C416.081 421.487 419.869 407.378 420.107 398.642Z" fill="#F7A491"/>
<path d="M409.879 291.254C405.432 288.882 393.886 288.799 381.192 289.621C356.443 291.225 332.014 296.096 308.471 303.893L292.716 309.11L292.769 292.959C292.769 292.959 242.651 284.574 240.907 296.995C238.281 315.698 241.54 353.668 258.239 362.143C310.106 388.468 382.79 320.205 383.053 329.137C383.407 341.13 393.519 385.763 396.104 405.305C403.294 405.43 415.649 405.424 421.007 404.195C422.048 365.915 422.538 298.007 409.879 291.254Z" fill="#466EB6"/>
<path d="M390.435 450.808L426.269 479.429C427.689 480.369 428.868 479.555 428.937 478.529C429.077 476.413 424.697 467.564 421.729 461.645C412.8 455.922 401.027 440.993 401.238 438.063C397.461 441.25 389.828 450.058 390.435 450.808Z" fill="#3C8F7C"/>
<path d="M309.326 135.146C308.122 124.144 306.855 113.101 297.733 105.037C290.351 98.5113 280.966 97.4058 271.686 100.897C245.392 110.789 258.94 134.139 225.412 157.681C214.994 164.997 203.511 170.003 195.668 179.854C184.689 193.641 188.834 210.226 198.84 221.299C246.717 274.28 300.169 202.729 304.006 185.552C306.861 172.774 310.1 142.229 309.326 135.146Z" fill="#13375B"/>
<path d="M299.604 197.015C295.693 189.806 291.664 184.086 291.664 184.086C287.608 176.875 277.127 173.228 277.127 173.228C277.127 173.228 273.622 173.299 269.596 173.497C269.347 174.165 269.093 174.642 268.837 174.834C267.324 175.968 258.655 174.504 253.055 178.305C234.286 194.393 239.477 272.367 240.953 296.996L298.115 297.536C298.115 297.536 290.908 244.544 302.523 230.93C310.611 221.449 305.406 207.709 299.604 197.015Z" fill="#50BFA5"/>
<path d="M273.839 146.848C273.839 146.848 270.696 169.285 268.502 174.738C266.308 180.191 280.569 191.851 292.435 195.391C304.302 198.931 288.808 183.348 289.3 177.519C289.792 171.69 291.949 144.092 291.949 144.092L273.839 146.848Z" fill="#F7A491"/>
<path d="M291.349 152.006C291.696 147.44 291.948 144.092 291.948 144.092L273.839 146.848C273.839 146.848 273.382 149.484 272.877 153.211C280.219 157.471 286.82 156.127 291.349 152.006Z" fill="#F47458"/>
<path d="M279.517 105.865C279.517 105.865 272.379 107.473 267.971 114.199C263.564 120.925 260.539 140.724 275.056 149.966C289.572 159.208 300.862 146.135 301.049 133.385C301.237 120.633 298.505 103.616 279.517 105.865Z" fill="#F7A491"/>
<path d="M304.402 129.4C305.641 126.324 305.191 123.245 303.399 122.523C301.606 121.802 299.149 123.711 297.911 126.788C296.672 129.865 297.121 132.944 298.914 133.665C300.706 134.386 303.164 132.477 304.402 129.4Z" fill="#F7A491"/>
<path d="M281.659 105.447C281.659 105.447 272.558 125.857 264.563 127.68C256.568 129.503 256.684 139.773 256.684 139.773C256.684 139.773 256.863 116.057 264.356 110.617C271.848 105.178 281.659 105.447 281.659 105.447Z" fill="#13375B"/>
<path d="M267.724 131.942C266.672 128.628 264.002 126.517 261.761 127.229C259.52 127.94 258.557 131.204 259.609 134.518C260.662 137.832 263.331 139.943 265.572 139.231C267.813 138.52 268.776 135.256 267.724 131.942Z" fill="#F7A491"/>
<path d="M369.984 279.271C366.554 278.031 361.448 277.878 361.534 277.424C361.878 275.592 377.03 281.469 374.983 278.796C373.843 277.307 362.504 272.034 359.747 272.904C357.073 273.749 339.513 278.677 339.513 278.677L291.521 267.431C291.521 267.431 279.408 239.906 278.225 216.26C268.212 217.614 261.395 220.088 252.692 224.918C256.889 247.532 267.09 284.188 278.366 291.066C283.11 293.96 339.75 287.603 339.75 287.603C339.75 287.603 352.232 286.722 354.272 285.937C355.82 285.341 359.802 283.099 361.969 282.485C366.893 281.091 375.667 284.592 375.694 283.628C375.715 282.925 373.488 280.538 369.984 279.271Z" fill="#F7A491"/>
<path d="M278.52 190.994C278.059 183.717 275.302 176.692 267.559 174.43C262.761 173.028 257.377 174.369 253.542 177.501C248.979 181.227 247.706 187.204 247.727 192.861C247.775 205.705 248.651 219.023 250.997 231.669C259.7 226.84 269.859 223.937 279.872 222.583C279.867 222.508 279.13 200.61 278.52 190.994Z" fill="#96D9C9"/>
<path d="M129.825 204.723L55.4224 190.87C53.9279 190.592 52.9419 189.155 53.2204 187.661L62.5409 137.614C62.8188 136.12 64.2559 135.134 65.7504 135.412L140.153 149.265C141.648 149.544 142.634 150.98 142.355 152.474L133.035 202.521C132.757 204.015 131.32 205.001 129.825 204.723Z" fill="#F7CC7F"/>
<path d="M94.4087 147.51L71.7605 143.293C70.2668 143.015 69.2807 141.578 69.5586 140.084L70.9771 132.469C71.255 130.975 72.6922 129.989 74.1866 130.267L96.8341 134.484C98.3285 134.762 99.3146 136.198 99.036 137.693L97.6182 145.308C97.3404 146.802 95.9032 147.788 94.4087 147.51Z" fill="#F7CC7F"/>
<path d="M133.213 202.809C132.827 204.179 131.46 205.028 130.061 204.767L55.1723 190.823C53.7796 190.564 52.8107 189.29 52.9339 187.878L56.8537 143.017C56.9217 142.244 57.312 141.535 57.9307 141.066C58.5487 140.596 59.3364 140.41 60.0997 140.552L143.294 156.042C144.054 156.183 144.72 156.638 145.129 157.295C145.537 157.952 145.649 158.75 145.439 159.493L133.213 202.809Z" fill="#FAE0B2"/>
<path d="M474.473 38.8895L461.732 42.3678L458.988 26.9302L463.158 26.1892L465.09 37.0623L473.358 34.8055L474.473 38.8895Z" fill="#50BFA5"/>
<path d="M68.5684 250.905C71.7585 250.646 76.6579 252.051 78.8541 253.54C79.1842 253.848 81.7106 254.854 84.3357 259.203L83.745 259.612C80.9745 256.713 79.1112 256.063 76.8921 255.397C73.2343 254.457 69.548 255.16 69.2443 255.322L68.5684 250.905Z" fill="#355389"/>
<path d="M84.0399 259.408C84.0399 259.408 64.5997 262.652 66.4128 277.836C68.2259 293.021 88.7345 304.834 107.038 295.443C131.662 282.809 121.936 250.688 104.41 248.205C86.8841 245.721 84.0399 259.408 84.0399 259.408Z" fill="#F47458"/>
<path d="M92.2869 252.721C92.2869 252.721 97.3582 247.514 108.471 252.251C119.584 256.988 120.388 279.076 110.477 277.793C100.566 276.509 84.362 255.908 92.2869 252.721Z" fill="#F48C7F"/>
<path d="M226.022 50.9877L146.068 79.5058C143.49 80.4252 140.656 79.0812 139.736 76.5044L124.978 35.1384C124.059 32.5615 125.403 29.7269 127.98 28.8076L207.935 0.289415C210.512 -0.629924 213.347 0.714002 214.266 3.29087L229.024 44.6568C229.944 47.2344 228.6 50.0684 226.022 50.9877Z" fill="#86B1F2"/>
<path d="M158.103 61.5207C166.854 61.5207 173.948 54.4276 173.948 45.6779C173.948 36.9281 166.854 29.835 158.103 29.835C149.352 29.835 142.258 36.9281 142.258 45.6779C142.258 54.4276 149.352 61.5207 158.103 61.5207Z" fill="white"/>
<path d="M155.973 44.379C158.553 44.379 160.645 42.2874 160.645 39.7072C160.645 37.127 158.553 35.0353 155.973 35.0353C153.392 35.0353 151.3 37.127 151.3 39.7072C151.3 42.2874 153.392 44.379 155.973 44.379Z" fill="#86B1F2"/>
<path d="M167.987 51.1653L153.924 56.1808L153.286 54.3959C152.299 51.6314 153.742 48.5898 156.507 47.6032L160.557 46.159C163.322 45.1724 166.364 46.6144 167.35 49.3796L167.987 51.1653Z" fill="#86B1F2"/>
<path d="M174.997 31.7073C174.145 31.7073 173.38 31.1682 173.094 30.3656C172.72 29.3159 173.269 28.1581 174.318 27.7837L209.27 15.3167C209.489 15.2387 209.718 15.1986 209.949 15.1986C210.801 15.1986 211.565 15.7378 211.852 16.5404C212.226 17.5893 211.677 18.7478 210.627 19.1223L175.675 31.5892C175.457 31.668 175.229 31.7073 174.997 31.7073Z" fill="white"/>
<path d="M184.432 40.4189C183.58 40.4189 182.815 39.8797 182.529 39.0771C182.154 38.0282 182.704 36.8697 183.753 36.4952L211.052 26.7591C211.271 26.6811 211.499 26.6417 211.731 26.6417C212.582 26.6417 213.347 27.1808 213.634 27.9834C213.814 28.4918 213.787 29.0403 213.557 29.5279C213.325 30.0154 212.918 30.3842 212.409 30.5653L185.112 40.3022C184.892 40.3795 184.663 40.4189 184.432 40.4189Z" fill="white"/>
<path d="M350.254 363.007H157.193C151.198 363.007 146.338 367.866 146.338 373.861V382.991C146.338 388.985 151.198 393.845 157.193 393.845H350.254L350.153 393.74C341.894 385.143 341.939 371.548 350.254 363.007Z" fill="#F47458"/>
<path d="M346.836 367.572H243.629C237.633 367.572 232.774 372.431 232.774 378.426C232.774 384.421 237.633 389.28 243.629 389.28H346.834C343.04 382.559 343.046 374.287 346.836 367.572Z" fill="#FAE0B2"/>
<path d="M508.264 363.895L493.629 327.184C492.893 325.338 493.793 323.243 495.641 322.507L548.301 301.52C550.148 300.784 552.243 301.684 552.979 303.531L567.613 340.242C568.349 342.09 567.449 344.183 565.603 344.919L512.942 365.906C511.094 366.642 509 365.741 508.264 363.895Z" fill="#FAE0B2"/>
<path d="M557.94 342.668L544.79 309.679C544.578 309.149 544.836 308.548 545.366 308.336C545.896 308.126 546.497 308.383 546.708 308.913L559.858 341.903C560.07 342.433 559.811 343.033 559.281 343.245C558.752 343.456 558.151 343.197 557.94 342.668Z" fill="#466EB6"/>
<path d="M551.674 338.322L540.877 311.237C540.667 310.707 540.924 310.106 541.455 309.895C541.984 309.684 542.586 309.942 542.797 310.472L553.594 337.557C553.805 338.087 553.547 338.688 553.017 338.898C552.486 339.11 551.886 338.852 551.674 338.322Z" fill="#466EB6"/>
<path d="M550.117 345.786L536.966 312.796C536.755 312.266 537.013 311.666 537.544 311.454C538.074 311.243 538.675 311.502 538.886 312.031L552.036 345.021C552.247 345.551 551.989 346.152 551.459 346.363C550.928 346.573 550.327 346.315 550.117 345.786Z" fill="#466EB6"/>
<path d="M543.203 339.816L533.054 314.355C532.842 313.824 533.101 313.224 533.631 313.013C534.161 312.802 534.762 313.06 534.973 313.59L545.123 339.052C545.334 339.582 545.076 340.182 544.545 340.394C544.015 340.605 543.415 340.346 543.203 339.816Z" fill="#466EB6"/>
<path d="M557.586 306.16L557.321 305.497C557.223 305.252 556.958 305.129 556.728 305.22L551.73 307.212C551.5 307.304 551.392 307.577 551.49 307.821L551.754 308.485C551.852 308.729 552.118 308.853 552.348 308.762L557.346 306.77C557.576 306.678 557.684 306.405 557.586 306.16Z" fill="#355389"/>
<path d="M558.719 309.002L558.454 308.338C558.357 308.094 558.091 307.97 557.861 308.061L552.863 310.053C552.633 310.145 552.525 310.417 552.623 310.662L552.888 311.325C552.985 311.57 553.251 311.694 553.481 311.602L558.479 309.611C558.71 309.519 558.817 309.246 558.719 309.002Z" fill="#355389"/>
<path d="M559.852 311.843L559.587 311.179C559.49 310.935 559.224 310.811 558.994 310.903L553.996 312.895C553.765 312.987 553.658 313.259 553.756 313.504L554.02 314.167C554.118 314.411 554.383 314.536 554.614 314.444L559.611 312.452C559.842 312.36 559.949 312.088 559.852 311.843Z" fill="#355389"/>
<path d="M560.984 314.685L560.72 314.021C560.622 313.776 560.356 313.652 560.126 313.744L555.129 315.736C554.899 315.828 554.791 316.1 554.888 316.345L555.153 317.009C555.251 317.253 555.517 317.377 555.747 317.285L560.744 315.294C560.975 315.202 561.082 314.929 560.984 314.685Z" fill="#355389"/>
<path d="M562.117 317.526L561.852 316.862C561.755 316.617 561.489 316.494 561.259 316.586L556.261 318.577C556.032 318.669 555.924 318.942 556.021 319.186L556.286 319.85C556.383 320.094 556.65 320.218 556.879 320.127L561.878 318.135C562.107 318.043 562.214 317.771 562.117 317.526Z" fill="#355389"/>
<path d="M563.25 320.367L562.985 319.703C562.887 319.459 562.622 319.335 562.392 319.426L557.394 321.418C557.164 321.51 557.056 321.783 557.154 322.027L557.419 322.691C557.517 322.935 557.782 323.059 558.012 322.968L563.01 320.976C563.24 320.884 563.347 320.612 563.25 320.367Z" fill="#355389"/>
<path d="M564.383 323.208L564.118 322.544C564.02 322.3 563.755 322.176 563.524 322.268L558.527 324.259C558.297 324.352 558.189 324.624 558.287 324.869L558.552 325.532C558.649 325.776 558.915 325.9 559.145 325.809L564.143 323.817C564.373 323.725 564.48 323.454 564.383 323.208Z" fill="#355389"/>
<path d="M565.515 326.049L565.25 325.386C565.152 325.141 564.887 325.017 564.657 325.109L559.659 327.101C559.428 327.193 559.321 327.465 559.418 327.71L559.683 328.373C559.78 328.618 560.046 328.741 560.277 328.65L565.274 326.659C565.505 326.566 565.613 326.294 565.515 326.049Z" fill="#355389"/>
<path d="M566.647 328.891L566.382 328.227C566.285 327.982 566.019 327.859 565.789 327.951L560.792 329.942C560.562 330.034 560.455 330.307 560.552 330.551L560.816 331.215C560.914 331.46 561.18 331.584 561.41 331.492L566.407 329.5C566.638 329.409 566.745 329.135 566.647 328.891Z" fill="#355389"/>
<path d="M567.781 331.733L567.516 331.069C567.419 330.825 567.153 330.701 566.923 330.793L561.925 332.785C561.696 332.876 561.588 333.148 561.685 333.393L561.949 334.058C562.047 334.302 562.313 334.426 562.543 334.334L567.541 332.342C567.771 332.251 567.878 331.977 567.781 331.733Z" fill="#355389"/>
<path d="M568.913 334.575L568.648 333.91C568.552 333.666 568.286 333.542 568.055 333.634L563.057 335.625C562.827 335.717 562.72 335.989 562.817 336.234L563.082 336.897C563.18 337.142 563.445 337.266 563.676 337.174L568.674 335.182C568.903 335.091 569.011 334.819 568.913 334.575Z" fill="#355389"/>
<path d="M570.045 337.415L569.781 336.751C569.683 336.507 569.417 336.383 569.188 336.475L564.189 338.467C563.96 338.558 563.852 338.831 563.949 339.075L564.214 339.74C564.312 339.984 564.578 340.108 564.807 340.016L569.806 338.024C570.035 337.932 570.144 337.66 570.045 337.415Z" fill="#355389"/>
<path d="M583.853 334.491L562.952 364.248C562.906 364.315 562.869 364.389 562.844 364.466L560.714 371.005C560.465 371.766 561.346 372.394 561.985 371.912L567.579 367.696C567.648 367.644 567.707 367.583 567.757 367.513L588.711 337.679C588.978 337.298 588.874 336.77 588.481 336.519L584.964 334.272C584.595 334.035 584.105 334.132 583.853 334.491Z" fill="#B75742"/>
<path d="M567.734 367.545L567.683 367.618L562.285 371.685L560.812 370.702L562.832 364.504C564.414 365.367 566.308 366.256 567.734 367.545Z" fill="#F7CC7F"/>
<path d="M372.116 12.3432C375.125 14.744 380.359 22.4696 387.036 27.8932C390.942 31.0658 393.951 30.2589 398.936 30.861C422.592 33.72 416.182 38.5551 419.019 39.0299C418.213 40.8836 410.844 56.5481 409.466 59.7143C408.196 62.6348 405.999 63.9415 402.818 63.5019C397.926 62.8253 392.99 62.3226 388.173 61.2787C375.827 58.6016 368.957 52.4269 360.109 44.9289C357.762 42.9392 357.183 40.4583 358.401 37.6465C364.066 24.561 371.502 13.5482 372.116 12.3432Z" fill="#466EB6"/>
<path d="M421.582 57.8742C421.476 63.0286 421.87 64.0632 419.656 63.2814C418.323 62.8102 417.032 62.1973 415.774 61.5479C414.886 61.0897 414.851 60.4854 415.572 59.7608C416.623 58.7061 417.701 57.6794 418.752 56.6555C417.983 54.6343 418.864 52.2815 420.755 51.1746C421.141 50.9483 420.859 51.428 424.154 43.8471C413.259 42.5031 405.573 41.601 392.282 39.9671C388.729 39.5303 385.568 38.1492 382.82 35.8494C373.327 27.9076 363.833 19.965 354.348 12.0139C353.061 10.9356 352.898 9.35537 353.919 8.13889C354.7 7.2081 355.736 7.1637 356.849 7.30332C359.883 7.68352 389.624 11.3781 392.643 11.731C396.611 12.1943 400.104 13.6886 403.172 16.2576C412.498 24.0662 421.849 31.847 431.187 39.642C432.468 40.7117 432.815 41.6926 432.365 42.8826C431.87 44.19 430.791 44.813 429.159 44.4607C427.98 44.2065 427.459 44.5624 427.053 45.6528C425.221 50.5832 423.944 51.6751 424.385 53.4751C424.727 54.8648 423.075 57.2706 421.582 57.8742Z" fill="#86B1F2"/>
<path d="M470.922 408.035L476.343 413.203C489.163 425.429 499.618 439.914 507.183 455.932L508.013 457.691C508.013 457.691 522.206 458.945 524.188 446.114C511.736 432.055 501.485 417.047 493.026 400.352L490.46 394.352L470.922 408.035Z" fill="#466EB6"/>
<path d="M490.447 394.335C491.144 395.334 487.337 399.192 481.945 402.953C476.553 406.714 471.592 408.998 470.895 407.999C470.198 407 474.029 403.096 479.422 399.336C484.814 395.575 489.751 393.336 490.447 394.335Z" fill="#86B1F2"/>
<path d="M490.47 394.371L490.453 394.352C490.453 394.352 479.649 403.495 475.195 404.429L476.57 406.3C478.197 405.42 480.044 404.279 481.945 402.953C487.275 399.235 491.055 395.423 490.47 394.371Z" fill="#355389"/>
<path d="M504.904 420.919C504.923 422.495 504.32 429.299 493 432.138C493.744 433.152 494.477 434.175 495.195 435.208C502.361 433.09 505.583 429.412 507.031 426.612C507.26 426.169 507.537 425.573 507.721 425.114C506.765 423.728 505.825 422.329 504.904 420.919Z" fill="#B75742"/>
<path d="M494.015 430.126L477.354 429.531L481.303 432.882L478.944 437.163L494.712 433.143L494.015 430.126Z" fill="#B75742"/>
<path d="M495.534 434.001L489.614 444.312L493.777 442.726L495.38 446.001L498.162 435.158L495.534 434.001Z" fill="#B75742"/>
<path d="M497.806 436.794C500.731 436.587 502.93 433.976 502.717 430.962C502.503 427.948 499.959 425.672 497.033 425.879C494.107 426.086 491.909 428.698 492.122 431.712C492.335 434.726 494.88 437.001 497.806 436.794Z" fill="#F47458"/>
<path d="M533.157 202.858L498.072 171.554C495.792 169.52 496.741 165.334 499.886 163.553L527.888 147.7C529.681 146.686 531.7 146.779 532.999 147.939L568.085 179.243C570.364 181.278 569.415 185.463 566.27 187.244L538.269 203.098C536.476 204.111 534.458 204.018 533.157 202.858Z" fill="#9BC1F9"/>
<path d="M531.496 177.955L528.57 153.904C528.458 152.983 529.13 151.998 530.069 151.706C531.009 151.413 531.861 151.922 531.972 152.843L534.664 174.975L561.269 181.408C562.136 181.618 562.536 182.553 562.161 183.497C561.786 184.44 560.777 185.036 559.908 184.825L531.496 177.955Z" fill="white"/>
<path d="M73.338 67.7893L76.9642 74.9621L85.1576 74.6972L88.6535 83.0257L97.2937 80.0529L101.663 89.2971L109.955 87.5401L115.613 95.7475L112.508 97.8884L108.276 91.7523L99.5257 93.606L95.3252 84.7197L86.5411 87.7427L82.6828 78.5521L74.682 78.8106L71.3208 72.1619L66.102 73.4313L65.2104 69.7647L73.338 67.7893Z" fill="#F7CC7F"/>
<path d="M512.116 251.293L519.563 254.319L525.567 248.737L533.674 252.72L538.235 244.803L547.602 248.903L552.7 242.131L562.359 244.602L561.424 248.257L554.203 246.41L548.822 253.555L539.817 249.614L535.181 257.664L526.233 253.268L520.371 258.719L513.469 255.915L510.368 260.299L507.287 258.12L512.116 251.293Z" fill="#50BFA5"/>
<path d="M415.013 504H169.944C160.584 504 152.996 496.131 152.996 486.423V475.971C152.996 466.263 160.584 458.394 169.944 458.394H415.013C403.802 471.102 403.608 490.523 414.562 503.469L415.013 504Z" fill="#B75742"/>
<path d="M411.229 463.619H275.301C265.941 463.619 258.353 471.49 258.353 481.197C258.353 490.905 265.941 498.774 275.301 498.774H411.241C404.889 487.991 404.902 474.374 411.229 463.619Z" fill="#FAE0B2"/>
</g>
<defs>
<clipPath id="clip0">
<rect width="570" height="504" fill="white"/>
</clipPath>
</defs>
</svg>
